<svg width="24" height="24" viewBox="0 0 24 24" fill="none" xmlns="http://www.w3.org/2000/svg">
<path d="M23.9773 11.8755V11.9357C23.9773 12.036 23.9773 12.1363 23.9773 12.2366V12.2968C23.9773 12.3971 23.9773 12.4974 23.9773 12.5776C23.9168 13.7612 23.7153 14.8845 23.3324 15.9477C23.2518 16.1684 23.1712 16.389 23.0906 16.6097C21.2972 20.9426 17.005 23.9918 12.0075 23.9918C10.3551 23.9918 8.80347 23.6708 7.37274 23.069C7.27199 23.0289 7.17123 22.9888 7.07048 22.9286C4.14856 21.6648 1.85133 19.2175 0.743019 16.2285C0.722868 16.1483 0.682566 16.0681 0.662414 15.9678C0.259392 14.8243 0.0377293 13.5806 0.0175781 12.3168V12.2567C0.0175781 12.1564 0.0175781 12.0561 0.0175781 11.9558V11.8956C0.0175781 11.8555 0.0175781 11.8153 0.0175781 11.7752V11.695C0.0175781 11.5947 0.0175781 11.5144 0.0377293 11.4141C0.0981827 10.0099 0.40045 8.66592 0.924379 7.4222C0.924379 7.3219 0.964681 7.2216 1.00498 7.14136C2.1939 4.45332 4.35007 2.28684 7.05032 1.06318C7.11078 1.02306 7.17123 1.003 7.23168 0.98294C8.68257 0.34102 10.2947 0 11.9874 0C16.7229 0 20.8337 2.74822 22.7682 6.7201C22.869 6.94076 22.9899 7.18148 23.0705 7.40214C23.5743 8.6258 23.8765 9.94976 23.9571 11.354C23.9571 11.4743 23.9571 11.5746 23.9773 11.695V11.7752C23.9773 11.8153 23.9773 11.8354 23.9773 11.8755Z" fill="#17C522"/>
<path d="M23.9792 11.8838V11.9439C23.9792 12.0442 23.9792 12.1445 23.9792 12.2448V12.305C23.9792 12.4053 23.9792 12.5056 23.9792 12.5859C23.9188 13.7694 23.7173 14.8928 23.3344 15.9559C23.2538 16.1766 23.1732 16.3973 23.0926 16.6179C21.2991 20.9509 17.0069 24 12.0095 24C10.3571 24 8.80543 23.679 7.3747 23.0772C7.27394 23.0371 7.17318 22.997 7.07243 22.9368C4.15051 21.673 1.85328 19.2257 0.744972 16.2368C0.724821 16.1565 0.684519 16.0763 0.664368 15.976C0.261345 14.8326 0.0396824 13.5889 0.0195312 12.3251V12.2649C0.0195312 12.1646 0.0195312 12.0643 0.0195312 11.964V11.9038L23.9792 11.8838Z" fill="#020202"/>
<path d="M23.9798 11.7773C23.9798 11.8175 23.9798 11.8576 23.9798 11.8776V11.9378C23.9798 12.0381 23.9798 12.1384 23.9798 12.2387V12.2989C23.9798 12.3992 23.9798 12.4995 23.9798 12.5797C23.9194 13.7633 23.7179 14.8866 23.335 15.9498H0.644836C0.241814 14.8064 0.0201511 13.5627 0 12.2989V12.2387C0 12.1384 0 12.0381 0 11.9378V11.8776C0 11.8375 0 11.7974 0 11.7573V11.677C0 11.5767 0 11.4965 0.0201511 11.3962C0.0806045 9.99201 0.382872 8.64799 0.906801 7.40427H23.0932C23.597 8.62793 23.8992 9.95189 23.9798 11.3561C23.9798 11.4764 23.9798 11.5767 24 11.6971V11.7773H23.9798Z" fill="white"/>
<path d="M7.05228 1.06378V22.9693C4.15051 21.6654 1.85328 19.2181 0.744972 16.2291C0.724821 16.1489 0.684519 16.0687 0.664368 15.9684C0.261345 14.8249 0.0396824 13.5812 0.0195312 12.3174V12.2573C0.0195312 12.157 0.0195312 12.0567 0.0195312 11.9564V11.8962C0.0195312 11.8561 0.0195312 11.8159 0.0195312 11.7758V11.6956C0.0598335 10.1911 0.362101 8.74676 0.906181 7.4228C0.926332 7.3225 0.966635 7.2222 1.00694 7.14196C2.19585 4.45392 4.37218 2.26738 7.05228 1.06378Z" fill="#ED0000"/>
</svg>
